<?xml version="1.0" encoding="utf-8"?>
<!-- Generator: Adobe Illustrator 21.0.0, SVG Export Plug-In . SVG Version: 6.00 Build 0)  -->
<svg version="1.1" id="Layer_1" xmlns="http://www.w3.org/2000/svg" xmlns:xlink="http://www.w3.org/1999/xlink" x="0px" y="0px"
	 viewBox="0 0 330 303" style="enable-background:new 0 0 330 303;" xml:space="preserve">
<style type="text/css">
	.st0{fill:#F1F1F1;}
	.st1{filter:url(#Adobe_OpacityMaskFilter);}
	.st2{fill:#FFFFFF;}
	.st3{mask:url(#mask-2);fill:#E2D3F5;}
	.st4{fill:#BEADD9;}
	.st5{fill:#3A3A3A;fill-opacity:0.5;}
	.st6{fill:#3A3A3A;}
	.st7{fill:#7CABFF;}
	.st8{fill:#241352;}
	.st9{fill:#FFAFA7;}
	.st10{fill:#5F2D90;}
	.st11{fill:#FBC580;}
	.st12{fill:#6F35A5;}
	.st13{fill:#9C8BBF;}
	.st14{fill:#E4B1ED;}
	.st15{fill:#002C68;}
	.st16{fill:#241352;fill-opacity:0.2;}
	.st17{fill:#241352;fill-opacity:0.12;}
	.st18{fill:#6042DD;}
	.st19{fill:#FCF2FC;}
	.st20{fill:#7E2E84;}
	.st21{fill:#FF7081;}
	.st22{fill:#FF957E;}
	.st23{fill:#E2D3F5;}
	.st24{fill:#FCFBFC;}
	.st25{fill:#283FC6;}
	.st26{fill:#F0F0F0;}
	.st27{fill:#FCFCFC;}
	.st28{fill:#16267A;}
	.st29{fill:#FEFEFE;}
	.st30{fill:#FCFAFC;}
	.st31{fill:#8E93F9;}
	.st32{fill:#AAB0F2;}
	.st33{fill:#1F0C15;}
	.st34{fill:#1F1F1F;}
	.st35{fill:#1C1C1D;}
</style>
<path class="st0" d="M28.7,196.2c-5.4-42.8,4.9-81.1,65.6-109.7s32.2-88.8,116.6-83s119.7,120.8,98.6,174.7s-61.8,173.4-220.9,99.6
	C34.6,252.8,28.7,196.2,28.7,196.2z"/>
<title>Group 261</title>
<desc>Created with Sketch.</desc>
<g id="Page-1">
	<g id="_x30_2" transform="translate(-42.000000, -106.000000)">
		<g id="Group-261" transform="translate(42.000000, 106.000000)">
			<g id="Group-3">
				<g id="Clip-2">
				</g>
				<defs>
					<filter id="Adobe_OpacityMaskFilter" filterUnits="userSpaceOnUse" x="-370.8" y="0" width="329.8" height="287.9">
						<feColorMatrix  type="matrix" values="1 0 0 0 0  0 1 0 0 0  0 0 1 0 0  0 0 0 1 0"/>
					</filter>
				</defs>
				<mask maskUnits="userSpaceOnUse" x="-370.8" y="0" width="329.8" height="287.9" id="mask-2">
					<g class="st1">
						<polygon id="path-1" class="st2" points="-370.8,0 -41,0 -41,287.9 -370.8,287.9 						"/>
					</g>
				</mask>
				<path id="Fill-1" class="st3" d="M-287,282.6c-40.4-13.6-75.4-47.3-82.6-89.3s19.3-89.2,61-98.2c19.7-4.3,40.9-0.5,59.8-7.7
					c35.5-13.6,47.5-59.6,80.3-78.8C-137-9.9-93.7,3.4-70.1,31.4c23.5,28,30.4,66.6,29,103.1c-2.1,53.6-25,111.5-73.7,134.1
					C-156,287.8-242.9,293.2-287,282.6"/>
			</g>
			<path id="Fill-4" class="st4" d="M-335.8,273.3c8.9,14.7,27.2,20.3,43.9,19.9c16.7-0.4,33-5.3,49.7-6.3
				c26.4-1.6,52.4,6.8,78.4,12.1c26,5.3,54.4,7.2,77.6-6.2c5.7-3.3,11.2-7.7,13.5-14c2.3-6.3,0.2-14.7-5.8-17.3
				c-2.3-1-4.9-1.1-7.4-1.1c-55.7-1.1-111.4-2.2-167.1-3.2c-28.3-0.5-59.6,0-80.9,19.5"/>
			<g id="Group-132" transform="translate(12.000000, 41.000000)">
				<path id="Fill-6" class="st5" d="M-107.9,66.2c-3.4,3.3-4.7,8.4-1.5,12.3c3.1,3.7,9,4.5,12.9,1.5c9.3-7.1-0.4-20.3-10.4-17.5
					c-1.9,0.5-1.4,3.1,0.4,3.2c2.9,0.2,6.1,0.3,8.4,2.3c2.5,2.2,2.6,5.9,0.5,8.4c-5.5,6.7-14.9-3.2-9.2-9.1
					C-106,66.6-107.1,65.5-107.9,66.2"/>
				<path id="Fill-8" class="st6" d="M-331.1,33.9c-3.4-1.5-7.7-1.2-10.8,0.9c-3.1,2.1-5.1,5.9-4.9,9.6c0.1,2.9,1.3,6.3-0.6,8.5
					c-1.5,1.8-4,1.9-6.1,2.9c-4,1.8-5.9,7-4.1,10.9c1,2.1,2.9,4.1,2.5,6.4c-0.2,1.5-1.4,2.7-2.7,3.4c-1.3,0.8-2.8,1.2-4.2,1.8
					c-5,2.4-8,8.1-7.9,13.6c0.1,5.5,3.2,10.7,7.6,14.1c4.4,3.4,10,5,15.5,5.2c5.6,0.2,11.4-1.1,15.6-4.7c3.2-2.7,5.3-6.4,6.8-10.3
					c2.9-7.3,4.1-15.3,3.4-23.2c-0.7-8.2-3.3-16.1-3.9-24.2c-0.2-2.7-0.2-5.5-0.8-8.2c-0.6-2.7-2-5.3-4.3-6.7"/>
				<path id="Fill-10" class="st6" d="M-332.4,34.9c3.2-6.5,9.4-11.5,16.5-13c4.4-1,9.2-0.6,13,1.6c3.8,2.3,6.5,6.7,5.9,11.2
					c-0.4,2.7-1.8,5.2-2.8,7.7c-0.9,2.6-1.3,5.7,0.5,7.9c1.6,1.9,4.3,2.4,6.4,3.6c3.1,1.8,5,5.3,4.8,8.8s-2.5,6.8-5.8,8.2
					c3.2,0.4,6.3,2.2,8.1,4.8c1.9,2.6,2.5,6.1,1.8,9.2c-1.1,4.5-4.8,8-8.7,10.4c-5.5,3.4-11.9,5.4-18.4,5.6
					c-6.9,0.3-14.5-1.7-18.2-7.5c-2.5-3.8-2.8-8.5-3.1-13c-0.8-13.5-1.4-27.1-2-40.6c-0.1-2.2-0.2-4.4,0.3-6.5"/>
				<path id="Fill-12" class="st5" d="M-309.2,96.1l61.6,23l-5.9-24.7l16-4.1c0,0,17.2,48.4,5.3,49.7c-21,2.3-52.7-6-52.7-6
					L-309.2,96.1z"/>
				<path id="Fill-14" class="st5" d="M-314.6,201.6c0,0,74.4-80.8,124.7-63.2c50.3,17.6,71.5,99.9,71.5,99.9l-40-0.6
					c0,0-31.6-62.1-47-59.7c-15.4,2.4-63.1,61.6-63.1,61.6L-314.6,201.6z"/>
				<path id="Fill-16" class="st5" d="M-291.1,152.6l3.1,47.4c-16,19.6-71.9-5.7-71.9-5.7l-0.7-19.8l-1.3-47.2
					c1.3-18.8,18.8-28,18.8-28c7.3-3.6,18.3-5.6,28.3-5.1c10.4,0.5,13,5.5,17.3,14.9C-294,116.6-284.6,129-291.1,152.6"/>
				<path id="Fill-18" class="st5" d="M-349.5,203.2c0,0-8.5,34.6,17.5,40c26,5.4,121.8-7.3,146.8-5.1c24.9,2.2,95.9,6.3,95.9,6.3
					l5.2-41.1c0,0-110.4-5.3-122.9-2.2C-219.5,204.2-349.5,203.2-349.5,203.2"/>
				<path id="Fill-20" class="st6" d="M-337,142.7c0,0-7.8,45.8,3.2,44.6c36.2-3.7,57.8-4.2,57.8-4.2l6,12.4
					c0.1,2.1-68.6,21.7-79.6,15.2c-7.8-4.6-20.2-16.9-14.6-53.6l1.3-12.3L-337,142.7z"/>
				<polygon id="Fill-22" class="st5" points="-304.3,208.4 -304.4,205.3 -258.9,199 -246.8,157 -196.5,155.8 -210.1,201.2 				"/>
				<path id="Fill-24" class="st6" d="M-222.6,176.9c0.1,2-1.6,3.7-3.6,3.8c-2.1,0-3.8-1.6-3.8-3.6c-0.1-2,1.6-3.7,3.6-3.8
					C-224.3,173.2-222.6,174.8-222.6,176.9"/>
				<path id="Fill-26" class="st6" d="M-221.1,176.8c0.1,2.9-2.2,5.2-5.1,5.3s-5.3-2.2-5.3-5.1c-0.1-2.9,2.2-5.2,5.1-5.3
					C-223.5,171.7-221.2,174-221.1,176.8"/>
				<path id="Fill-28" class="st6" d="M-356.9,112.4c0,0-8.4,8.1-10.3,38.6l32.7-3.6C-334.5,147.4-329.1,95.4-356.9,112.4"/>
				<path id="Fill-30" class="st5" d="M-116.9,20.6c0,0,11.6,25.9,14.8,24.5c3.2-1.4,33.2-19.8,33.2-19.8S-81.1,2.1-83.7,0.8
					C-86.3-0.6-116.9,20.6-116.9,20.6"/>
				<path id="Fill-32" class="st6" d="M-83.7,0.8c0.1,0.1-0.7,2.7-2.2,7c-1.5,4.2-3.6,10.1-6.1,16.5c-0.1,0.2-0.1,0.3-0.2,0.5
					l-0.2,0.4l-0.5-0.1c-6.7-1.1-12.7-2.1-17.1-2.9s-7-1.4-7-1.5c0-0.2,2.7,0.1,7.1,0.8c4.4,0.6,10.4,1.5,17.2,2.6l-0.6,0.4
					c0.1-0.1,0.1-0.3,0.2-0.5c2.4-6.4,4.7-12.2,6.4-16.4C-85,3.3-83.8,0.7-83.7,0.8"/>
				<path id="Fill-34" class="st6" d="M-105.9,42.1c-0.3-0.1,0.6-4.3,2-9.5c1.4-5.2,2.8-9.3,3.1-9.2s-0.6,4.3-2,9.5
					C-104.2,38-105.5,42.1-105.9,42.1"/>
				<path id="Fill-36" class="st6" d="M-70.9,20.1c0,0.3-4.2-0.1-9.3-0.9c-5.1-0.8-9.2-1.7-9.2-2c0.1-0.3,4.2,0.1,9.3,0.9
					C-74.9,18.9-70.8,19.8-70.9,20.1"/>
				<path id="Fill-38" class="st6" d="M-340.5,48.4l0.7,9.7c0,0-8.3,1.1-5.9,8.6c2.4,7.5,8,4.2,8,4.2s1.4,19.3,21.3,13.2
					c15.8-4.9,14.8-25.2,12.8-42.5c-0.8-6.7-7.2-11.3-13.8-10l-11.9,2.3C-336.3,35.2-341.1,41.4-340.5,48.4"/>
				<path id="Fill-40" class="st6" d="M-339.8,66.1l5.3,28.3c1.2,6.4,7.5,10.5,13.9,9c5.9-1.4,9.7-7.1,8.6-13l-2.9-16.2L-339.8,66.1
					z"/>
				<path id="Fill-42" class="st6" d="M-317.8,66.4c0.1-0.1,0.2,0.3,0.6,0.3c0.4,0,0.9-0.3,1-1.1c0.2-0.8,0.1-1.8,0-2.9
					c-0.1-1.2-0.2-2.5-0.3-3.8c-0.3-5.4-0.4-9.7,0-9.7c0.3,0,0.8,4.3,1.2,9.7c0.1,1.3,0.1,2.5,0.2,3.8c0,1.1,0.1,2.3-0.2,3.2
					c-0.3,1-1.3,1.6-1.9,1.3C-318,66.9-317.9,66.4-317.8,66.4"/>
				<path id="Fill-44" class="st6" d="M-311.4,82.1c0.1,0.1-0.7,1-2.3,1.9c-1.6,0.9-4.1,1.8-7,1.9c-2.9,0.1-5.5-0.7-7.1-1.6
					c-1.7-0.9-2.5-1.7-2.4-1.8c0.1-0.3,4,2.4,9.5,2.3C-315.3,84.7-311.6,81.8-311.4,82.1"/>
				<path id="Fill-46" class="st6" d="M-315.3,70.4c0.1,0.1-0.1,0.7-1,1.3c-0.8,0.6-2.4,1.1-4,0.6c-1.6-0.5-2.6-1.8-2.9-2.8
					c-0.4-1-0.2-1.7-0.1-1.7c0.2,0,0.3,0.6,0.8,1.3c0.5,0.8,1.3,1.7,2.6,2.1c1.2,0.4,2.5,0.1,3.3-0.2
					C-315.9,70.7-315.4,70.3-315.3,70.4"/>
				<path id="Fill-48" class="st6" d="M-340.4,67.6c0,0.1-0.5,0.4-1.3,0.1c-0.4-0.1-1-0.5-1.2-1.1c-0.1-0.3-0.2-0.7-0.1-1.1
					c0.1-0.4,0.5-0.8,0.9-0.9c0.6-0.2,1.3-0.1,1.7,0.5l-1,0.5c-0.6-1.6-0.9-2.8-0.7-2.9c0.2-0.1,0.9,0.9,1.7,2.5l-1,0.5
					c0,0-0.2-0.1-0.4,0c-0.2,0.1-0.3,0.3-0.2,0.6c0.1,0.3,0.3,0.6,0.5,0.7C-340.9,67.4-340.4,67.5-340.4,67.6"/>
				<path id="Fill-50" class="st6" d="M-309.9,54c-0.3,0.1-0.7-0.6-0.9-1.4c-0.2-0.9-0.1-1.6,0.2-1.7c0.3-0.1,0.7,0.6,0.9,1.4
					C-309.5,53.2-309.6,54-309.9,54"/>
				<path id="Fill-52" class="st6" d="M-326.7,55.6c-0.3,0.1-0.7-0.5-1-1.4c-0.2-0.9-0.2-1.6,0.1-1.7c0.3-0.1,0.7,0.5,1,1.4
					C-326.3,54.8-326.4,55.5-326.7,55.6"/>
				<path id="Fill-54" class="st6" d="M-325.1,48.5c-0.1,0.3-1,0.3-2,0.6c-1,0.2-1.8,0.7-2,0.5c-0.2-0.2,0.4-1.2,1.7-1.6
					C-326.1,47.7-325,48.3-325.1,48.5"/>
				<path id="Fill-56" class="st6" d="M-308,45.8c-0.1,0.3-1.1,0.1-2.3,0.3c-1.2,0.1-2.1,0.4-2.3,0.1c-0.2-0.2,0.7-1.1,2.2-1.3
					C-308.9,44.9-307.8,45.6-308,45.8"/>
				<path id="Fill-58" class="st6" d="M-339.8,58.1c5.5-5.4,7.2-14.3,8.7-21.9c5.1,3.7,12.2,4.6,18.1,2.3c1.9,2.2,4,4.1,6.4,5.6
					c0.7,0.4,1.5,0.9,2.3,0.6c0.9-0.3,1.3-1.3,1.6-2.3c0.7-3,0.7-6.2-0.3-9.1c-1.1-2.9-3.3-5.5-6.2-6.6c-3.1-1.2-6.6-0.7-9.8,0.2
					c-4.8,1.2-9.5,3.2-13.8,5.7c-4.2,2.5-8.3,5.7-10.1,10.3c-1.8,4.5-1.8,13.4,2.5,15.7"/>
				<path id="Fill-60" class="st6" d="M-317.2,71.5c0.3,1.5-1,3-2.8,2.6c-1.8-0.4-2.4-2.3-1.5-3.6c0.9-1.3,2-2.1,2.7-2
					C-318.2,68.8-317.4,69.9-317.2,71.5"/>
				<path id="Fill-62" class="st6" d="M-324.1,62.5c0.3,1.5-1.6,3.1-4.3,3.3c-2.6,0.1-4.7-1.3-4.6-2.9c0.1-1.6,2.1-2.7,4.3-2.8
					C-326.4,60-324.4,60.9-324.1,62.5"/>
				<path id="Fill-64" class="st6" d="M-303.1,60.8c0.3,1.5-1.4,3.1-3.8,3.3c-2.4,0.1-4.2-1.3-4.1-2.9c0.2-1.6,1.8-2.7,3.8-2.8
					C-305.2,58.3-303.4,59.2-303.1,60.8"/>
				<path id="Fill-66" class="st6" d="M-340,83.7c-0.3,0-0.5-3.1-0.7-6.9c-0.2-3.8-0.3-6.9,0-7c0.3,0,1,3,1.2,6.9
					C-339.4,80.6-339.7,83.7-340,83.7"/>
				<path id="Fill-68" class="st5" d="M-307.1,95.8c-5.4-2.1,35.9,13.1,35.9,13.1l-4.2,28.1l-15.7-5.1L-307.1,95.8z"/>
				<path id="Fill-70" class="st6" d="M-331.6,32.4c1.3-1.9,1.7-4.4,1.1-6.7c-0.5-1.9-1.9-3.7-3.8-3.8c-1.1-0.1-2.2,0.5-3,1.2
					c-2,1.8-2.5,5.1-1.2,7.4c1.3,2.4,4.4,3.6,7,2.9"/>
				<path id="Fill-72" class="st5" d="M-85.2,212c0,0,13.4-19.1,11.8-11.9c-1.6,7.2-15.3,39.4-15.3,39.4L-85.2,212z"/>
				<path id="Fill-74" class="st6" d="M-279.8,183.1c0,0,17.7-5.5,17.1-3.7c-0.6,1.8-3.6,1.9-6.6,4.8c0,0,19.8,0.2,18.9,1.8
					c-1,1.6-13.9,2-13.9,2.3c-0.1,0.3,14.1,0.6,13.8,2.1c-0.3,1.5-13.5,1.1-13.5,1.1s12.2,1.3,12,2.9c-0.3,1.6-11.5,0.5-11.5,0.5
					s9.4,1.1,9.2,2.5c-0.1,0.9-27.6,1.1-27.7,1.8C-282.2,199.6-279.8,183.1-279.8,183.1"/>
				<path id="Fill-76" class="st5" d="M-252.4,95.8c0,0-10.8-15-8.8-15c1.9,0,2.9,2.8,6.6,4.8c0,0-5.9-18.7-4.1-18.3
					c1.8,0.4,6.2,12.4,6.5,12.4c0.3,0-3.8-13.5-2.3-13.6c1.5-0.2,5.3,12.3,5.3,12.3s-2.6-11.9-0.9-12.2c1.6-0.3,4,10.7,4,10.7
					s-1.9-9.2-0.4-9.4c0.9-0.1,9,22.7,9,22.7C-237.7,90.2-252.4,95.8-252.4,95.8"/>
				<path id="Fill-78" class="st6" d="M-351.6,137c0.1,0,0.5,0.7,0.5,2.1c0,0.7-0.3,1.7-1.2,2.3c-0.4,0.3-1,0.5-1.7,0.4
					c-0.6-0.1-1.1-0.6-1.5-0.9c-0.7-0.8-1.2-1.3-1.9-1.4c-0.7-0.1-1.3,0.1-1.7,0.5c-0.8,0.8-0.8,1.6-1,1.6c-0.1,0.1-0.5-0.9,0.4-2.2
					c0.5-0.6,1.4-1.1,2.4-1c0.5,0,1.1,0.2,1.5,0.6c0.4,0.3,0.8,0.7,1.1,1.1c1.1,1.5,2.6,0,2.7-1.1C-351.7,137.9-351.8,137-351.6,137
					"/>
				<path id="Fill-80" class="st6" d="M-341.9,128.7c-0.1-0.1,0.3-0.8,1.5-1.6c0.6-0.4,1.6-0.6,2.6-0.2c0.5,0.2,1,0.6,1.2,1.2
					c0.2,0.6,0.1,1.2,0,1.7c-0.3,1-0.5,1.7-0.2,2.3c0.3,0.6,0.8,1,1.3,1.2c1.1,0.3,1.8-0.2,1.9,0c0.1,0.1-0.5,1-2.1,0.8
					c-0.7-0.1-1.6-0.6-2.1-1.5c-0.2-0.5-0.4-1-0.3-1.6c0.1-0.6,0.2-1,0.4-1.5c0.7-1.8-1.3-2.2-2.3-1.7
					C-341.1,128.3-341.8,128.8-341.9,128.7"/>
				<path id="Fill-82" class="st6" d="M-342.6,108c-0.1-0.1,0.3-0.8,1.5-1.6c0.6-0.4,1.6-0.6,2.6-0.2c0.5,0.2,1,0.6,1.2,1.2
					c0.2,0.6,0.1,1.2,0,1.7c-0.3,1-0.5,1.7-0.2,2.3c0.3,0.6,0.8,1,1.3,1.2c1.1,0.3,1.8-0.2,1.9,0c0.1,0.1-0.5,1-2.1,0.8
					c-0.7-0.1-1.6-0.6-2.1-1.5c-0.2-0.5-0.4-1-0.3-1.6c0.1-0.6,0.2-1,0.4-1.5c0.7-1.8-1.3-2.2-2.3-1.7
					C-341.8,107.6-342.5,108.1-342.6,108"/>
				<path id="Fill-84" class="st6" d="M-321.9,135c-0.1,0.1-0.8-0.3-1.7-1.4c-0.4-0.6-0.8-1.5-0.4-2.5c0.2-0.5,0.5-1,1.1-1.3
					c0.6-0.3,1.2-0.2,1.7-0.1c1,0.2,1.7,0.4,2.3,0c0.6-0.3,1-0.9,1.1-1.4c0.2-1.1-0.3-1.8-0.2-1.9c0.1-0.1,1,0.4,1,2
					c0,0.7-0.5,1.7-1.4,2.2c-0.4,0.3-1,0.4-1.6,0.4c-0.6,0-1.1-0.1-1.5-0.2c-1.8-0.6-2.1,1.5-1.5,2.4
					C-322.4,134.2-321.8,134.8-321.9,135"/>
				<path id="Fill-86" class="st6" d="M-307.9,156.6c0.1,0.1-0.4,0.8-1.6,1.4c-0.6,0.3-1.6,0.5-2.6,0c-0.5-0.2-1-0.7-1.1-1.3
					c-0.2-0.6,0-1.2,0.2-1.7c0.4-1,0.6-1.6,0.4-2.3c-0.2-0.7-0.7-1.1-1.2-1.3c-1.1-0.4-1.8,0-1.9-0.1c-0.1-0.1,0.6-0.9,2.1-0.6
					c0.7,0.1,1.6,0.7,2,1.7c0.2,0.5,0.3,1,0.2,1.6c-0.1,0.5-0.3,1-0.5,1.4c-0.9,1.7,1.2,2.3,2.2,1.9
					C-308.7,156.9-308,156.4-307.9,156.6"/>
				<path id="Fill-88" class="st6" d="M-291.3,122.5c0.1,0.1-0.4,0.8-1.6,1.4c-0.6,0.3-1.6,0.5-2.6,0c-0.5-0.2-1-0.7-1.1-1.3
					c-0.2-0.6,0-1.3,0.2-1.7c0.4-1,0.6-1.6,0.4-2.3c-0.2-0.7-0.7-1.1-1.2-1.3c-1.1-0.4-1.8,0-1.9-0.1c-0.1-0.1,0.6-0.9,2.1-0.6
					c0.7,0.1,1.6,0.7,2,1.7c0.2,0.5,0.3,1,0.2,1.6c-0.1,0.5-0.3,1-0.5,1.4c-0.9,1.7,1.2,2.3,2.2,1.9
					C-292.1,122.8-291.4,122.3-291.3,122.5"/>
				<path id="Fill-90" class="st6" d="M-280,117.3c0.1-0.1,0.9,0.1,1.9,1c0.5,0.5,1,1.4,0.9,2.4c-0.1,0.5-0.3,1.1-0.9,1.5
					c-0.5,0.4-1.2,0.4-1.7,0.4c-1.1,0-1.7,0-2.3,0.4c-0.5,0.4-0.8,1-0.8,1.6c0,1.1,0.7,1.7,0.5,1.8c0,0.1-1.1-0.2-1.3-1.8
					c-0.1-0.7,0.2-1.7,0.9-2.4c0.4-0.3,0.9-0.6,1.5-0.7c0.6-0.1,1.1,0,1.5,0c1.9,0.2,1.8-1.9,1.1-2.7
					C-279.4,117.9-280.1,117.4-280,117.3"/>
				<path id="Fill-92" class="st6" d="M-325.7,174.3c0.1,0.1-0.4,0.8-1.6,1.4c-0.6,0.3-1.6,0.5-2.6,0c-0.5-0.2-1-0.7-1.1-1.3
					c-0.2-0.6,0-1.2,0.2-1.7c0.4-1,0.6-1.6,0.4-2.3c-0.2-0.7-0.7-1.1-1.2-1.3c-1.1-0.4-1.8,0-1.9-0.1c-0.1-0.1,0.6-0.9,2.1-0.6
					c0.7,0.1,1.6,0.7,2,1.7c0.2,0.5,0.3,1,0.2,1.6c-0.1,0.5-0.3,1-0.5,1.4c-0.9,1.7,1.2,2.3,2.2,1.9
					C-326.5,174.6-325.8,174.1-325.7,174.3"/>
				<path id="Fill-94" class="st6" d="M-301.2,141.4c-0.1,0.1-0.8-0.4-1.5-1.6c-0.3-0.6-0.6-1.6-0.1-2.6c0.2-0.5,0.6-1,1.3-1.2
					c0.6-0.2,1.3-0.1,1.7,0.1c1,0.4,1.6,0.6,2.3,0.3c0.7-0.2,1.1-0.8,1.2-1.3c0.3-1.1-0.1-1.8,0-1.9c0.1-0.1,0.9,0.5,0.7,2.1
					c-0.1,0.7-0.7,1.6-1.6,2c-0.5,0.2-1,0.3-1.6,0.2c-0.6-0.1-1-0.3-1.5-0.4c-1.7-0.8-2.3,1.2-1.8,2.2
					C-301.6,140.6-301,141.3-301.2,141.4"/>
				<path id="Fill-96" class="st6" d="M-296.8,159.1c-0.1,0.1-0.8-0.4-1.5-1.6c-0.3-0.6-0.6-1.6-0.1-2.6c0.2-0.5,0.6-1,1.3-1.2
					c0.6-0.2,1.3-0.1,1.7,0.1c1,0.4,1.7,0.6,2.3,0.3c0.7-0.2,1.1-0.7,1.2-1.3c0.3-1.1-0.1-1.8,0-1.9c0.1-0.1,0.9,0.5,0.7,2.1
					c-0.1,0.7-0.7,1.6-1.6,2c-0.5,0.2-1,0.3-1.6,0.2c-0.6-0.1-1-0.3-1.5-0.4c-1.7-0.8-2.3,1.2-1.8,2.2
					C-297.2,158.3-296.6,159-296.8,159.1"/>
				<path id="Fill-98" class="st6" d="M-332.3,151.5c-0.1,0-0.4-0.8-0.1-2.2c0.2-0.7,0.6-1.6,1.6-2c0.5-0.2,1.1-0.3,1.7,0
					c0.6,0.3,1,0.8,1.2,1.2c0.5,0.9,0.8,1.5,1.5,1.8c0.6,0.3,1.3,0.2,1.8-0.1c1-0.6,1.2-1.4,1.3-1.4c0.1,0,0.3,1-0.9,2
					c-0.6,0.5-1.6,0.7-2.6,0.4c-0.5-0.2-1-0.4-1.3-0.9c-0.4-0.4-0.6-0.9-0.8-1.3c-0.8-1.7-2.5-0.6-2.9,0.5
					C-332,150.7-332.1,151.6-332.3,151.5"/>
				<path id="Fill-100" class="st6" d="M-300.2,173.3c-0.1,0-0.4-0.8-0.1-2.2c0.2-0.7,0.6-1.6,1.6-2c0.5-0.2,1.1-0.3,1.7,0
					c0.6,0.3,1,0.8,1.2,1.2c0.5,0.9,0.8,1.5,1.5,1.8c0.6,0.3,1.3,0.2,1.8-0.1c1-0.6,1.2-1.4,1.3-1.4c0.1,0,0.3,1-0.9,2
					c-0.6,0.5-1.6,0.7-2.6,0.4c-0.5-0.2-1-0.4-1.3-0.9c-0.4-0.4-0.6-0.9-0.8-1.3c-0.8-1.7-2.5-0.6-2.9,0.5
					C-300,172.5-300.1,173.4-300.2,173.3"/>
				<path id="Fill-102" class="st6" d="M-301.2,107.3c-0.1,0-0.4-0.8-0.1-2.2c0.2-0.7,0.6-1.6,1.6-2c0.5-0.2,1.1-0.3,1.7,0
					c0.6,0.3,1,0.8,1.2,1.2c0.5,0.9,0.8,1.5,1.5,1.8c0.6,0.3,1.3,0.2,1.8-0.1c1-0.6,1.2-1.4,1.3-1.4c0.1,0,0.3,1-0.9,2
					c-0.6,0.5-1.6,0.7-2.6,0.4c-0.5-0.2-1-0.4-1.3-0.9c-0.4-0.4-0.6-0.9-0.8-1.3c-0.8-1.7-2.5-0.6-2.9,0.5
					C-300.9,106.5-301,107.3-301.2,107.3"/>
				<path id="Fill-104" class="st6" d="M-311.6,182.1c-0.1,0.1-0.9,0-2-0.8c-0.6-0.4-1.2-1.2-1.2-2.3c0-0.5,0.2-1.2,0.7-1.6
					c0.5-0.4,1.1-0.6,1.6-0.6c1.1-0.1,1.7-0.2,2.2-0.7c0.5-0.5,0.7-1.1,0.6-1.7c-0.1-1.1-0.9-1.6-0.8-1.7c0-0.1,1.1,0.1,1.5,1.6
					c0.2,0.7,0.1,1.7-0.6,2.5c-0.3,0.4-0.8,0.7-1.3,0.9c-0.5,0.2-1.1,0.2-1.5,0.2c-1.9,0-1.6,2.1-0.7,2.8
					C-312.3,181.5-311.5,181.9-311.6,182.1"/>
				<path id="Fill-106" class="st6" d="M-349.7,117.3c0.1-0.1,0.8,0.4,1.4,1.7c0.3,0.6,0.4,1.6-0.1,2.6c-0.3,0.5-0.7,0.9-1.4,1
					c-0.6,0.1-1.3-0.1-1.7-0.3c-1-0.5-1.6-0.7-2.3-0.5c-0.7,0.2-1.1,0.6-1.4,1.1c-0.5,1-0.1,1.8-0.2,1.9c-0.1,0.1-0.9-0.6-0.5-2.1
					c0.2-0.7,0.8-1.5,1.8-1.9c0.5-0.2,1.1-0.2,1.6-0.1c0.5,0.1,1,0.4,1.4,0.5c1.7,0.9,2.4-1,2-2.1
					C-349.4,118.1-349.8,117.4-349.7,117.3"/>
				<path id="Fill-108" class="st6" d="M-313,110.7c0.1-0.1,0.8,0.4,1.4,1.7c0.3,0.6,0.4,1.7-0.1,2.6c-0.3,0.5-0.7,0.9-1.4,1
					c-0.6,0.1-1.3-0.1-1.7-0.3c-1-0.5-1.6-0.7-2.3-0.5c-0.7,0.2-1.1,0.6-1.4,1.1c-0.5,1-0.1,1.8-0.2,1.9c-0.1,0.1-0.9-0.6-0.5-2.1
					c0.2-0.7,0.8-1.5,1.8-1.9c0.5-0.2,1.1-0.2,1.6-0.1c0.5,0.1,1,0.4,1.4,0.5c1.7,0.9,2.4-1,2-2.1
					C-312.7,111.6-313.1,110.8-313,110.7"/>
				<path id="Fill-110" class="st6" d="M-335.6,149.1c-0.1,0-0.1-0.8,0-2.2c0.1-1.4,0.3-3.5,0.5-6c0.5-5.1,1.2-12.1,2-19.9
					c0.2-1.9,0.3-3.8,0-5.5c-0.2-1.7-0.9-3.3-1.9-4.6c-2-2.6-4.8-3.9-7.3-4.5c-2.4-0.6-4.5-0.6-6-0.5c-1.4,0-2.2,0.1-2.2,0.1
					c0-0.1,0.8-0.3,2.2-0.5c1.4-0.2,3.6-0.3,6.2,0.2c2.6,0.5,5.7,1.8,7.9,4.6c1.1,1.4,1.9,3.2,2.2,5.1c0.3,1.9,0.2,3.9,0,5.8
					c-0.8,7.8-1.7,14.8-2.4,19.9c-0.3,2.5-0.6,4.6-0.8,6C-335.3,148.4-335.5,149.2-335.6,149.1"/>
				<path id="Fill-112" class="st6" d="M-334.1,147.4c0,0.3-7.4,1.3-16.6,2.3c-9.2,1-16.7,1.5-16.8,1.2c0-0.3,7.4-1.3,16.6-2.3
					C-341.7,147.6-334.2,147.1-334.1,147.4"/>
				<path id="Fill-114" class="st5" d="M-288.7,143.7c-0.4,0,1.4-6.6-0.6-14.4c-1.9-7.8-6.7-12.7-6.3-12.9c0.1-0.1,1.4,1,3,3.1
					c1.6,2.2,3.4,5.5,4.4,9.5c1,4,1,7.8,0.6,10.5C-288,142.2-288.6,143.7-288.7,143.7"/>
				<path id="Fill-116" class="st5" d="M-201.4,144.2c0.3-1.9,0.2-3.6,1.3-5.3c2.1-3.3,5.1-2.5,7.9-1c2.9,1.5,5.7,2.3,8.8,1
					c5-2.2,7.2-9.5,2.6-13.1c-1.5-1.2-3.1,0.7-2.8,2.2c0.3,2,1.3,4.2-0.4,5.9c-2.3,2.3-5,0.4-7.3-0.7c-2.5-1.1-5.1-1.4-7.7-0.3
					c-4.4,1.8-7.6,7.7-4.1,11.7C-202.7,145.3-201.6,145-201.4,144.2"/>
				<path id="Fill-118" class="st5" d="M-189.8,58.8c0.5,3,3.6,9.4,6.9,10.3c1.8,0.5,3.1-0.7,4.4-1.6c2.5-1.7,4.9-3.5,7.4-5.2
					c0.9-0.6,1.4-1.8,0.8-2.9c-2.2-3.3-4.4-6.7-6.5-10c-0.6-0.9-1.9-1.4-2.9-0.7c-2.7,1.9-5.6,3.7-8.1,5.9c-1.7,1.5,0.5,4.1,2.4,3.1
					c2.8-1.5,5.3-3.6,7.9-5.4c-1-0.2-1.9-0.5-2.9-0.7c2.2,3.3,4.4,6.7,6.5,10c0.3-1,0.5-1.9,0.8-2.9c-1.5,1-3,2.1-4.4,3.1
					c-0.7,0.5-3.8,3.3-4.6,3.1c-1-0.2-2.5-2.9-3.1-3.7c-1-1.2-2-2.4-3.4-3.3C-189.2,57.4-189.8,58.2-189.8,58.8"/>
				<path id="Fill-120" class="st5" d="M-220.6,89.9c-3.4,3.3-4.7,8.4-1.5,12.3c3.1,3.7,9,4.5,12.9,1.5c9.3-7.1-0.4-20.3-10.4-17.5
					c-1.9,0.5-1.4,3.1,0.4,3.2c2.9,0.2,6.1,0.3,8.4,2.3c2.5,2.2,2.6,5.9,0.5,8.4c-5.5,6.7-14.9-3.2-9.2-9.1
					C-218.8,90.3-219.9,89.2-220.6,89.9"/>
				<path id="Fill-122" class="st5" d="M-141.8,120.2c-1.2,6.1-2.2,12.2-3.1,18.4c-0.2,1.5,0.8,2.5,2.3,2.3
					c5.8-0.8,11.6-1.6,17.3-2.9c1.1-0.2,1.5-1.6,1-2.5c-3.2-5.7-7.4-13.6-13.5-16.7c-1.5-0.8-3.7,0.9-2.6,2.6
					c1.8,2.6,4.5,4.5,6.6,6.9c2.4,2.7,4.7,5.7,6.5,8.9c0.5-0.9,1-1.7,1.5-2.6c-6,0.6-11.9,1.7-17.8,2.7c0.8,0.6,1.6,1.2,2.3,1.8
					c0.7-6.2,1.4-12.3,1.8-18.5C-139.4,119.2-141.5,118.9-141.8,120.2"/>
				<path id="Fill-124" class="st5" d="M-165.8,90.3c0.1-1.9-3-2.4-3.4-0.5c-1.1,6.1-1.5,12.5-1.6,18.7c0,1.3,2,1.6,2.3,0.3
					C-167.1,102.9-166,96.4-165.8,90.3z"/>
				<path id="Fill-126" class="st5" d="M-83.7,109.1c2.3-0.1,2.2-3.2,0-3.4c-6-0.6-12.4-0.5-18.4-0.1c-1.2,0.1-1.7,2.1-0.3,2.3
					C-96.3,108.8-89.8,109.4-83.7,109.1z"/>
				<path id="Fill-128" class="st5" d="M-152.2,30.4c5.4,2.9,11.3,5.7,17.2,7.6c1.8,0.6,3.1-2.3,1.3-3.1c-5.5-2.7-11.7-4.9-17.6-6.6
					C-152.6,28-153.4,29.8-152.2,30.4"/>
				<path id="Fill-130" class="st5" d="M-135.1,79.8c-1.4-1.2-3.6-1.4-4.9,0c-1.3,1.5-1.3,3.5,0,4.9c0.1,0.1,0.2,0.2,0.3,0.3
					c1.2,1.4,3.8,1.3,5,0c1.2-1.3,1.5-3.7,0-5C-134.9,79.9-135,79.9-135.1,79.8z"/>
			</g>
			<path id="Fill-133" class="st7" d="M-99.3,101.9c-3.5,3.2-4.9,8.1-1.5,11.9c3.2,3.6,9.3,4.3,13.2,1.5c9.5-6.9-0.4-19.5-10.7-16.9
				c-1.9,0.5-1.4,3,0.5,3.1c3,0.2,6.2,0.3,8.6,2.2c2.6,2.1,2.6,5.7,0.5,8.1c-5.6,6.4-15.3-3-9.5-8.8
				C-97.4,102.3-98.6,101.2-99.3,101.9"/>
			<path id="Fill-135" class="st8" d="M-323,70.9c-3.4-1.5-7.7-1.2-10.8,0.9c-3.1,2.1-5,5.8-4.9,9.6c0.1,2.9,1.3,6.2-0.6,8.5
				c-1.5,1.7-4,1.9-6.1,2.8c-4,1.8-5.9,6.9-4.1,10.8c1,2.1,2.9,4.1,2.5,6.4c-0.2,1.5-1.4,2.7-2.7,3.4c-1.3,0.7-2.8,1.2-4.2,1.8
				c-5,2.4-8,8-7.9,13.5c0.1,5.5,3.2,10.7,7.6,14.1c4.4,3.4,9.9,5,15.5,5.2c5.5,0.2,11.3-1.1,15.6-4.6c3.2-2.7,5.3-6.4,6.8-10.2
				c2.9-7.3,4.1-15.3,3.4-23.1c-0.7-8.1-3.3-16-3.9-24.1c-0.2-2.7-0.2-5.5-0.8-8.1c-0.6-2.7-2-5.3-4.3-6.7"/>
			<path id="Fill-137" class="st8" d="M-322.8,70.8c3.1-6.6,9.3-11.6,16.3-13.2c4.3-1,9-0.6,12.8,1.7c3.8,2.3,6.4,6.8,5.8,11.3
				c-0.4,2.8-1.8,5.2-2.8,7.9c-0.9,2.6-1.2,5.8,0.5,8c1.6,1.9,4.2,2.4,6.3,3.7c3,1.8,4.9,5.4,4.7,9c-0.2,3.6-2.5,6.9-5.7,8.4
				c3.2,0.4,6.2,2.2,8,4.9c1.8,2.7,2.5,6.2,1.8,9.4c-1,4.6-4.7,8.1-8.6,10.6c-5.4,3.4-11.7,5.4-18.1,5.7c-6.8,0.3-14.3-1.7-17.9-7.6
				c-2.4-3.8-2.8-8.6-3.1-13.2c-0.8-13.7-1.4-27.5-1.9-41.3c-0.1-2.2-0.2-4.5,0.3-6.6"/>
			<path id="Fill-139" class="st9" d="M-301.8,133.7l62.2,22.5l-5.9-24.2l16.2-4c0,0,17.4,47.3,5.3,48.6
				c-21.1,2.2-53.1-5.9-53.1-5.9L-301.8,133.7z"/>
			<path id="Fill-141" class="st10" d="M-305.8,237.9c0,0,74-81.1,124-63.4c50,17.7,71,100.3,71,100.3l-39.8-0.6
				c0,0-31.4-62.4-46.8-60C-212.7,216.6-260,276-260,276L-305.8,237.9z"/>
			<path id="Fill-143" class="st11" d="M-282.9,189.4l3.1,47.2c-16.1,19.5-72-5.7-72-5.7l-0.7-19.7l-1.3-47
				c1.3-18.7,18.9-27.9,18.9-27.9c7.3-3.6,18.4-5.6,28.4-5.1c10.4,0.5,13,5.4,17.3,14.9C-285.8,153.5-276.3,165.9-282.9,189.4"/>
			<path id="Fill-145" class="st12" d="M-340.4,239.1c0,0-8.5,35.8,17.5,41.5c26,5.6,121.5-7.6,146.4-5.3
				c24.9,2.3,95.6,6.5,95.6,6.5l5.2-42.5c0,0-110.1-5.5-122.6-2.3C-210.8,240.2-340.4,239.1-340.4,239.1"/>
			<path id="Fill-147" class="st9" d="M-329,179c0,0-7.8,46.2,3.2,45.1c36.4-3.7,58-4.2,58-4.2l6,12.5c0.1,2.1-68.9,21.9-79.9,15.4
				c-7.8-4.6-20.3-17-14.6-54.1l1.3-12.4L-329,179z"/>
			<polygon id="Fill-149" class="st13" points="-295.7,245 -295.8,241.9 -250.3,235.3 -238.2,192.2 -187.8,191 -201.4,237.6 			"/>
			<path id="Fill-151" class="st2" d="M-213.8,214.9c0.1,2.2-1.7,4-3.9,4.1c-2.2,0.1-4-1.7-4.1-3.9c-0.1-2.2,1.7-4,3.9-4.1
				C-215.7,210.9-213.8,212.7-213.8,214.9"/>
			<path id="Fill-153" class="st2" d="M-212.8,213.4c0.1,3-2.3,5.6-5.4,5.6c-3,0.1-5.6-2.3-5.6-5.4c-0.1-3,2.3-5.6,5.4-5.6
				C-215.4,207.9-212.8,210.3-212.8,213.4"/>
			<path id="Fill-155" class="st11" d="M-348.5,148.4c0,0-8.4,8.1-10.3,38.6l32.6-3.6C-326.2,183.4-320.8,131.4-348.5,148.4"/>
			<path id="Fill-157" class="st14" d="M-108.8,57.6c0,0,11.6,26.8,14.8,25.4c3.2-1.4,33.2-20.5,33.2-20.5s-12.3-24-14.8-25.4
				C-78.2,35.7-108.8,57.6-108.8,57.6"/>
			<path id="Fill-159" class="st15" d="M-75.8,39c0.1,0.1-0.7,2.6-2.2,6.6c-1.5,4-3.6,9.5-6,15.6c-0.1,0.1-0.1,0.3-0.2,0.4l-0.2,0.4
				l-0.5-0.1c-6.7-1-12.7-2-17-2.8c-4.3-0.8-7-1.3-7-1.4c0-0.1,2.7,0.1,7.1,0.7c4.4,0.6,10.4,1.4,17.1,2.5l-0.6,0.3
				c0.1-0.1,0.1-0.3,0.2-0.4c2.4-6.1,4.7-11.5,6.3-15.5C-77,41.4-75.9,38.9-75.8,39"/>
			<path id="Fill-161" class="st15" d="M-97.7,80c-0.3-0.1,0.7-4.2,2.3-9.1c1.6-5,3.2-8.9,3.6-8.9c0.3,0.1-0.7,4.2-2.3,9.1
				C-95.8,76.1-97.4,80.1-97.7,80"/>
			<path id="Fill-163" class="st15" d="M-62.8,56.9c0,0.2-4.3-0.1-9.6-0.6c-5.2-0.5-9.5-1.1-9.4-1.3c0.1-0.2,4.3,0.1,9.6,0.6
				C-66.9,56.2-62.7,56.7-62.8,56.9"/>
			<path id="Fill-165" class="st9" d="M-331.2,85.4l0.7,9.9c0,0-8.2,1.1-5.8,8.8c2.3,7.7,7.9,4.3,7.9,4.3s1.4,19.6,21,13.4
				c15.6-5,14.6-25.7,12.6-43.3c-0.8-6.8-7.1-11.5-13.6-10.2l-11.8,2.4C-327,71.9-331.8,78.3-331.2,85.4"/>
			<path id="Fill-167" class="st9" d="M-330.8,102l5.3,29.4c1.2,6.6,7.5,10.9,13.9,9.3c5.9-1.4,9.7-7.4,8.6-13.5l-2.9-16.8
				L-330.8,102z"/>
			<path id="Fill-169" class="st8" d="M-308.8,103.2c0.1-0.1,0.2,0.3,0.4,0.3c0.3,0,0.7-0.3,0.8-1.1c0.1-0.8,0.1-1.8,0-2.9
				c-0.1-1.2-0.1-2.5-0.2-3.8c-0.3-5.3-0.3-9.7,0-9.7c0.2,0,0.6,4.3,0.9,9.7c0,1.3,0.1,2.5,0.1,3.8c0,1.1,0.1,2.3-0.2,3.2
				c-0.2,1-0.9,1.6-1.4,1.3C-308.8,103.6-308.8,103.2-308.8,103.2"/>
			<path id="Fill-171" class="st8" d="M-302.8,118c0.1,0.1-0.7,1.3-2.3,2.5c-1.6,1.2-4.2,2.4-7.1,2.5c-2.9,0.1-5.5-1-7.1-2.1
				c-1.7-1.1-2.5-2.2-2.4-2.3c0.1-0.4,4,3.2,9.5,3C-306.7,121.4-302.9,117.6-302.8,118"/>
			<path id="Fill-173" class="st8" d="M-306.8,107.7c0.1,0.1-0.1,0.8-1,1.4c-0.8,0.6-2.3,1.2-3.9,0.6c-1.6-0.6-2.5-2-2.9-3
				c-0.3-1.1-0.2-1.8-0.1-1.8c0.2,0,0.3,0.6,0.8,1.4c0.4,0.8,1.3,1.8,2.5,2.2c1.2,0.4,2.4,0.1,3.2-0.2
				C-307.4,108-306.9,107.6-306.8,107.7"/>
			<path id="Fill-175" class="st8" d="M-330.8,104.7c0,0.2-0.4,0.4-1,0.1c-0.3-0.1-0.7-0.6-0.9-1.3c-0.1-0.4-0.1-0.8,0-1.3
				c0.1-0.5,0.3-0.9,0.7-1.1c0.4-0.3,1-0.1,1.3,0.6l-0.7,0.6c-0.5-1.8-0.7-3.3-0.5-3.4c0.2-0.1,0.7,1.1,1.3,2.9l-0.7,0.6
				c0,0-0.1-0.1-0.3,0c-0.2,0.1-0.2,0.4-0.2,0.8c0.1,0.4,0.2,0.6,0.4,0.9C-331.2,104.4-330.8,104.5-330.8,104.7"/>
			<path id="Fill-177" class="st8" d="M-301.5,90c-0.3,0-0.7-0.4-0.8-0.9c-0.2-0.6-0.1-1,0.2-1.1s0.7,0.4,0.8,0.9
				C-301.1,89.5-301.2,90-301.5,90"/>
			<path id="Fill-179" class="st8" d="M-319.4,91c-0.3,0.1-0.7-0.3-0.9-0.9c-0.2-0.6-0.2-1,0.1-1.1c0.3-0.1,0.7,0.3,0.9,0.9
				C-319.1,90.5-319.1,90.9-319.4,91"/>
			<path id="Fill-181" class="st8" d="M-316.8,86.8c-0.1,0.3-1,0.3-2,0.5c-1,0.2-1.8,0.6-2,0.4c-0.2-0.2,0.4-1.1,1.7-1.4
				C-317.7,86-316.7,86.5-316.8,86.8"/>
			<path id="Fill-183" class="st8" d="M-300.8,82.2c-0.1,0.3-1,0.1-2,0.2c-1,0.1-1.8,0.4-2,0.1c-0.2-0.2,0.6-1,1.9-1.2
				C-301.6,81.3-300.7,81.9-300.8,82.2"/>
			<path id="Fill-185" class="st8" d="M-331.6,95.5c5.4-5.5,7-14.5,8.5-22.2c5,3.8,11.9,4.7,17.7,2.4c1.8,2.2,4,4.1,6.3,5.7
				c0.7,0.4,1.5,0.9,2.2,0.6c0.9-0.3,1.3-1.4,1.5-2.3c0.7-3.1,0.7-6.3-0.3-9.3c-1-2.9-3.2-5.5-6-6.7c-3-1.2-6.4-0.7-9.6,0.2
				c-4.7,1.3-9.3,3.2-13.5,5.8c-4.2,2.5-8.1,5.8-9.9,10.4c-1.8,4.6-1.8,13.6,2.5,15.9"/>
			<path id="Fill-187" class="st16" d="M-312.2,110.9c-1.5-0.4-2-2.4-1.3-3.8c0.7-1.4,1.7-2.2,2.3-2.1c0.6,0.2,1.2,1.4,1.4,3.1
				C-309.6,109.7-310.7,111.3-312.2,110.9z"/>
			<path id="Fill-189" class="st17" d="M-319.7,103c-2.4,0.1-4.2-1.4-4.1-3c0.1-1.7,1.9-2.8,3.9-2.9c2-0.1,3.8,0.9,4.1,2.5
				C-315.5,101.2-317.3,102.9-319.7,103z"/>
			<path id="Fill-191" class="st17" d="M-298.6,102c-2.4,0.1-4.3-1.4-4.1-3c0.2-1.7,1.9-2.8,3.8-2.9c2-0.1,3.8,0.9,4.1,2.5
				C-294.5,100.1-296.2,101.9-298.6,102z"/>
			<path id="Fill-193" class="st18" d="M-330.6,120c-0.3,0-0.5-3.1-0.6-7c-0.2-3.8-0.3-7,0-7c0.3,0,0.9,3.1,1.1,7
				C-330,116.9-330.3,120-330.6,120"/>
			<path id="Fill-195" class="st11" d="M-297.3,132.2c-5.2-2.1,34.5,13,34.5,13l-4,27.8l-15.1-5.1L-297.3,132.2z"/>
			<path id="Fill-197" class="st8" d="M-323,69.7c1.2-2.2,1.5-4.9,1-7.4c-0.4-2.1-1.7-4.1-3.4-4.2c-1-0.1-1.9,0.5-2.7,1.4
				c-1.8,2-2.2,5.6-1.1,8.2c1.2,2.6,3.9,4,6.2,3.2"/>
			<path id="Fill-199" class="st8" d="M-77.4,248.5c0,0,13.1-19.1,11.5-11.9c-1.6,7.2-14.9,39.4-14.9,39.4L-77.4,248.5z"/>
			<path id="Fill-201" class="st9" d="M-271.4,219.2c0,0,17.9-5.7,17.3-3.8c-0.6,1.9-3.7,2-6.7,5c0,0,20,0.2,19,1.9
				c-1,1.7-14,2.1-14.1,2.4c-0.1,0.3,14.2,0.6,13.9,2.2c-0.3,1.6-13.6,1.2-13.6,1.2s12.3,1.3,12.1,3c-0.3,1.7-11.6,0.5-11.6,0.5
				s9.5,1.1,9.3,2.6c-0.1,0.9-27.9,1.1-27.9,1.8C-273.8,236.4-271.4,219.2-271.4,219.2"/>
			<path id="Fill-203" class="st9" d="M-244.3,132c0,0-11.2-14.6-9.2-14.6c2,0,3,2.8,6.9,4.6c0,0-6.2-18.2-4.3-17.8
				c1.9,0.4,6.5,12.1,6.8,12.1c0.3,0-4-13.1-2.4-13.3c1.6-0.2,5.5,12,5.5,12s-2.7-11.6-1-11.9c1.7-0.3,4.2,10.4,4.2,10.4
				s-2-9-0.5-9.2c0.9-0.1,9.4,22.1,9.4,22.1C-229,126.5-244.3,132-244.3,132"/>
			<path id="Fill-205" class="st19" d="M-343.3,174c0.1,0,0.5,0.7,0.5,2.2c0,0.7-0.3,1.7-1,2.4c-0.4,0.3-0.9,0.5-1.5,0.4
				c-0.6-0.1-1-0.6-1.3-1c-0.6-0.8-1-1.3-1.7-1.4c-0.6-0.1-1.2,0.1-1.5,0.5c-0.7,0.8-0.7,1.7-0.9,1.7c-0.1,0.1-0.5-1,0.3-2.2
				c0.4-0.6,1.2-1.1,2.1-1c0.4,0,0.9,0.2,1.3,0.6c0.4,0.3,0.7,0.8,1,1.1c1,1.6,2.3,0,2.4-1.1C-343.3,174.9-343.4,174-343.3,174"/>
			<path id="Fill-207" class="st19" d="M-334.8,165.1c-0.1-0.1,0.3-0.9,1.5-1.7c0.6-0.4,1.5-0.7,2.5-0.2c0.5,0.2,1,0.7,1.2,1.3
				c0.2,0.7,0.1,1.3,0,1.9c-0.3,1.1-0.5,1.8-0.2,2.5c0.3,0.7,0.8,1.1,1.3,1.3c1,0.3,1.8-0.2,1.8,0c0.1,0.1-0.5,1-2,0.8
				c-0.7-0.1-1.6-0.7-2-1.6c-0.2-0.5-0.3-1.1-0.3-1.7c0.1-0.6,0.2-1.1,0.3-1.6c0.7-1.9-1.3-2.4-2.2-1.8
				C-334,164.7-334.7,165.3-334.8,165.1"/>
			<path id="Fill-209" class="st19" d="M-334.8,144.1c-0.1-0.1,0.3-0.9,1.5-1.7c0.6-0.4,1.5-0.7,2.5-0.2c0.5,0.2,1,0.7,1.2,1.3
				c0.2,0.7,0.1,1.3,0,1.9c-0.3,1.1-0.5,1.8-0.2,2.5c0.3,0.7,0.8,1.1,1.3,1.3c1,0.3,1.8-0.2,1.8,0c0.1,0.1-0.5,1-2,0.8
				c-0.7-0.1-1.6-0.7-2-1.6c-0.2-0.5-0.3-1.1-0.3-1.7c0.1-0.6,0.2-1.1,0.3-1.6c0.7-1.9-1.3-2.4-2.2-1.8
				C-334,143.7-334.7,144.3-334.8,144.1"/>
			<path id="Fill-211" class="st19" d="M-313.3,172c-0.1,0.1-0.9-0.2-1.9-1.3c-0.4-0.5-0.9-1.4-0.5-2.3c0.2-0.5,0.6-1,1.2-1.2
				c0.7-0.3,1.4-0.2,1.9-0.1c1.2,0.2,1.9,0.3,2.6,0c0.7-0.3,1.1-0.8,1.2-1.3c0.2-1-0.4-1.7-0.2-1.7c0.1-0.1,1.1,0.4,1.1,1.8
				c0,0.7-0.5,1.6-1.5,2c-0.5,0.2-1.1,0.4-1.7,0.4c-0.6,0-1.2-0.1-1.7-0.2c-2-0.5-2.4,1.4-1.7,2.3
				C-313.8,171.3-313.1,171.9-313.3,172"/>
			<path id="Fill-213" class="st19" d="M-298.8,193.2c0.1,0.1-0.4,0.8-1.7,1.5c-0.6,0.3-1.6,0.5-2.6,0c-0.5-0.2-1-0.7-1.1-1.4
				c-0.2-0.6,0-1.3,0.2-1.8c0.4-1,0.6-1.7,0.4-2.4c-0.2-0.7-0.7-1.1-1.2-1.3c-1.1-0.4-1.8,0-1.9-0.1c-0.1-0.1,0.6-0.9,2.1-0.7
				c0.7,0.1,1.6,0.8,2,1.7c0.2,0.5,0.3,1.1,0.2,1.6c-0.1,0.6-0.3,1.1-0.5,1.5c-0.9,1.7,1.2,2.4,2.2,2
				C-299.6,193.5-298.9,193-298.8,193.2"/>
			<path id="Fill-215" class="st19" d="M-281.8,159.2c0.1,0.1-0.4,0.8-1.7,1.5c-0.6,0.3-1.6,0.5-2.6,0c-0.5-0.2-1-0.7-1.1-1.4
				c-0.2-0.6,0-1.3,0.2-1.8c0.4-1,0.6-1.7,0.4-2.4c-0.2-0.7-0.7-1.1-1.2-1.3c-1.1-0.4-1.8,0-1.9-0.1c-0.1-0.1,0.6-0.9,2.1-0.7
				c0.7,0.1,1.6,0.8,2,1.7c0.2,0.5,0.3,1.1,0.2,1.6c-0.1,0.6-0.3,1.1-0.5,1.5c-0.9,1.8,1.2,2.4,2.2,2
				C-282.6,159.5-281.9,159-281.8,159.2"/>
			<path id="Fill-217" class="st19" d="M-271.8,155c0.1-0.1,0.9,0.1,2.1,1c0.5,0.5,1.1,1.3,1,2.4c-0.1,0.5-0.3,1.1-0.9,1.5
				c-0.6,0.4-1.3,0.4-1.8,0.4c-1.2,0-1.9,0-2.5,0.4c-0.6,0.4-0.9,1-0.9,1.5c0,1.1,0.7,1.7,0.6,1.8c0,0.1-1.1-0.2-1.4-1.7
				c-0.1-0.7,0.2-1.7,1-2.4c0.4-0.3,0.9-0.6,1.6-0.7c0.6-0.1,1.1,0,1.6,0c2,0.2,1.9-1.8,1.1-2.6C-271.2,155.7-271.9,155.2-271.8,155
				"/>
			<path id="Fill-219" class="st19" d="M-317.8,211.2c0.1,0.1-0.4,0.8-1.7,1.5c-0.6,0.3-1.6,0.5-2.6,0c-0.5-0.2-1-0.7-1.1-1.4
				c-0.2-0.6,0-1.3,0.2-1.8c0.4-1,0.6-1.7,0.4-2.4c-0.2-0.7-0.7-1.1-1.2-1.3c-1.1-0.4-1.9,0-1.9-0.1c-0.1-0.1,0.6-0.9,2.1-0.7
				c0.7,0.1,1.6,0.8,2,1.7c0.2,0.5,0.3,1.1,0.2,1.6c-0.1,0.6-0.3,1.1-0.5,1.5c-0.9,1.8,1.2,2.4,2.2,2
				C-318.6,211.5-317.9,211-317.8,211.2"/>
			<path id="Fill-221" class="st19" d="M-292.8,178c-0.1,0.1-0.8-0.3-1.6-1.5c-0.4-0.6-0.6-1.6-0.1-2.5c0.2-0.5,0.7-1,1.3-1.2
				c0.7-0.2,1.3-0.1,1.8,0.1c1.1,0.4,1.7,0.6,2.4,0.3c0.7-0.2,1.1-0.7,1.3-1.2c0.4-1.1-0.1-1.8,0-1.9c0.1-0.1,1,0.5,0.8,2.1
				c-0.1,0.7-0.7,1.6-1.7,2c-0.5,0.2-1.1,0.3-1.7,0.2c-0.6-0.1-1.1-0.3-1.5-0.4c-1.8-0.8-2.4,1.2-1.9,2.2
				C-293.2,177.2-292.6,177.9-292.8,178"/>
			<path id="Fill-223" class="st19" d="M-287.8,195c-0.1,0.1-0.8-0.3-1.6-1.6c-0.4-0.6-0.6-1.6-0.1-2.5c0.2-0.5,0.7-1,1.3-1.2
				c0.7-0.2,1.3-0.1,1.8,0.1c1.1,0.4,1.7,0.6,2.4,0.3c0.7-0.2,1.1-0.7,1.3-1.2c0.4-1.1-0.1-1.8,0-1.9c0.1-0.1,1,0.5,0.8,2.1
				c-0.1,0.7-0.7,1.6-1.7,2c-0.5,0.2-1.1,0.3-1.7,0.2c-0.6-0.1-1.1-0.3-1.5-0.4c-1.8-0.8-2.4,1.2-1.9,2.2
				C-288.2,194.2-287.6,194.9-287.8,195"/>
			<path id="Fill-225" class="st19" d="M-323.6,189c-0.1,0-0.3-0.9-0.1-2.5c0.1-0.8,0.6-1.8,1.6-2.3c0.5-0.2,1.1-0.3,1.7,0
				c0.6,0.3,0.9,0.9,1.2,1.4c0.5,1.1,0.8,1.7,1.5,2c0.6,0.3,1.2,0.2,1.7-0.1c0.9-0.6,1.1-1.6,1.3-1.6c0.1,0,0.3,1.2-0.8,2.3
				c-0.6,0.5-1.5,0.9-2.4,0.5c-0.5-0.2-0.9-0.5-1.3-1c-0.3-0.5-0.6-1-0.8-1.5c-0.7-2-2.4-0.7-2.7,0.5
				C-323.3,188-323.4,189-323.6,189"/>
			<path id="Fill-227" class="st19" d="M-291.6,211c-0.1,0-0.3-0.9-0.1-2.5c0.1-0.8,0.6-1.8,1.6-2.3c0.5-0.2,1.1-0.3,1.7,0
				c0.6,0.3,0.9,0.9,1.2,1.4c0.5,1.1,0.8,1.7,1.5,2c0.6,0.3,1.2,0.2,1.7-0.1c0.9-0.6,1.1-1.6,1.3-1.6c0.1,0,0.3,1.2-0.8,2.3
				c-0.6,0.5-1.5,0.9-2.4,0.5c-0.5-0.2-0.9-0.5-1.3-1c-0.3-0.5-0.6-1-0.8-1.5c-0.7-2-2.4-0.7-2.7,0.5
				C-291.3,210-291.4,211-291.6,211"/>
			<path id="Fill-229" class="st19" d="M-291.6,144c-0.1,0-0.3-0.9-0.1-2.5c0.1-0.8,0.6-1.8,1.6-2.3c0.5-0.2,1.1-0.3,1.7,0
				c0.6,0.3,0.9,0.9,1.2,1.4c0.5,1.1,0.8,1.7,1.5,2c0.6,0.3,1.2,0.2,1.7-0.1c0.9-0.6,1.1-1.6,1.3-1.6c0.1-0.1,0.3,1.2-0.8,2.3
				c-0.6,0.5-1.5,0.9-2.4,0.5c-0.5-0.2-0.9-0.5-1.3-1c-0.3-0.5-0.6-1-0.8-1.5c-0.7-2-2.4-0.7-2.7,0.5
				C-291.3,143.1-291.4,144-291.6,144"/>
			<path id="Fill-231" class="st19" d="M-303,219c-0.1,0.1-1,0-2.4-0.8c-0.6-0.4-1.4-1.2-1.4-2.2c0-0.5,0.2-1.1,0.8-1.5
				c0.6-0.4,1.3-0.5,1.9-0.6c1.2-0.1,2-0.2,2.6-0.7c0.6-0.5,0.8-1.1,0.7-1.6c-0.2-1.1-1-1.5-0.9-1.7c0-0.1,1.3,0.1,1.8,1.5
				c0.2,0.7,0.1,1.7-0.7,2.4c-0.4,0.4-0.9,0.7-1.6,0.8c-0.6,0.2-1.2,0.2-1.8,0.2c-2.2,0-1.8,2-0.8,2.6
				C-303.8,218.4-302.9,218.8-303,219"/>
			<path id="Fill-233" class="st19" d="M-340.4,153c0.1-0.1,0.8,0.5,1.4,1.8c0.3,0.7,0.4,1.7-0.1,2.7c-0.3,0.5-0.7,1-1.4,1.1
				c-0.6,0.1-1.3-0.1-1.7-0.3c-1-0.5-1.6-0.8-2.3-0.5c-0.7,0.2-1.2,0.7-1.4,1.2c-0.5,1.1-0.1,1.9-0.2,2c-0.1,0.1-0.9-0.7-0.5-2.3
				c0.2-0.8,0.8-1.6,1.8-2c0.5-0.2,1.1-0.2,1.6-0.1c0.5,0.1,1,0.4,1.4,0.6c1.7,1,2.4-1.1,2-2.2C-340.1,153.9-340.6,153.1-340.4,153"
				/>
			<path id="Fill-235" class="st19" d="M-304.4,148c0.1-0.1,0.8,0.5,1.4,1.8c0.3,0.7,0.4,1.7-0.1,2.7c-0.3,0.5-0.7,1-1.4,1.1
				c-0.6,0.1-1.3-0.1-1.7-0.3c-1-0.5-1.6-0.8-2.3-0.5c-0.7,0.2-1.2,0.7-1.4,1.2c-0.5,1.1-0.1,1.9-0.2,2c-0.1,0.1-0.9-0.7-0.5-2.3
				c0.2-0.8,0.8-1.6,1.8-2c0.5-0.2,1.1-0.2,1.6-0.1c0.5,0.1,1,0.4,1.4,0.6c1.7,1,2.4-1.1,2-2.2C-304.1,148.9-304.6,148.1-304.4,148"
				/>
			<path id="Fill-237" class="st8" d="M-326.7,187c-0.1,0-0.1-0.8,0-2.3c0.1-1.5,0.3-3.7,0.5-6.3c0.5-5.3,1.2-12.7,2.1-20.8
				c0.2-2,0.3-4,0-5.8c-0.3-1.8-0.9-3.5-2-4.8c-2-2.7-4.9-4.1-7.4-4.7c-2.5-0.6-4.6-0.6-6.1-0.5c-1.5,0.1-2.3,0.1-2.3,0.1
				c0-0.1,0.8-0.3,2.2-0.5c1.5-0.2,3.6-0.3,6.3,0.2c2.6,0.5,5.8,1.9,8,4.9c1.1,1.4,2,3.3,2.2,5.3c0.3,2,0.2,4.1,0,6.1
				c-0.9,8.1-1.7,15.5-2.4,20.8c-0.3,2.7-0.6,4.8-0.9,6.3C-326.4,186.2-326.6,187-326.7,187"/>
			<path id="Fill-239" class="st8" d="M-323.8,185c0,0.2-7.5,0.7-16.9,1.3c-9.4,0.5-17,0.8-17.1,0.6c0-0.2,7.5-0.7,16.9-1.3
				C-331.4,185.2-323.8,184.9-323.8,185"/>
			<path id="Fill-241" class="st8" d="M-281.1,180c-0.4,0,1.4-6.5-0.6-14.2c-1.9-7.7-6.4-12.6-6.1-12.8c0.1-0.1,1.3,1,2.9,3.1
				c1.5,2.1,3.3,5.4,4.3,9.4c1,4,1,7.7,0.6,10.3C-280.4,178.5-281,180-281.1,180"/>
			<path id="Fill-243" class="st20" d="M-194.5,180.2c0.3-1.8,0.2-3.5,1.3-5.1c2-3.2,5-2.4,7.8-1c2.9,1.4,5.6,2.3,8.7,0.9
				c4.9-2.1,7.1-9.3,2.5-12.7c-1.5-1.1-3,0.7-2.8,2.1c0.3,2,1.3,4.1-0.4,5.8c-2.3,2.2-4.9,0.4-7.2-0.6c-2.4-1.1-5-1.3-7.6-0.3
				c-4.3,1.7-7.5,7.5-4,11.4C-195.8,181.3-194.7,181-194.5,180.2"/>
			<path id="Fill-245" class="st11" d="M-181.8,95.6c0.4,3,3.5,9.4,6.6,10.3c1.7,0.5,2.9-0.7,4.2-1.6c2.4-1.7,4.7-3.5,7.1-5.2
				c0.9-0.6,1.4-1.9,0.7-2.9c-2.1-3.4-4.2-6.7-6.3-10.1c-0.6-0.9-1.8-1.4-2.7-0.8c-2.6,1.9-5.4,3.7-7.8,6c-1.6,1.5,0.5,4.1,2.3,3.1
				c2.6-1.5,5.1-3.6,7.5-5.4c-0.9-0.3-1.8-0.5-2.8-0.8c2.1,3.4,4.2,6.7,6.3,10.1c0.2-1,0.5-1.9,0.7-2.9c-1.4,1.1-2.8,2.1-4.2,3.2
				c-0.7,0.5-3.6,3.3-4.4,3.1c-0.9-0.2-2.4-3-3-3.7c-1-1.2-1.9-2.4-3.2-3.3C-181.2,94.2-181.9,94.9-181.8,95.6"/>
			<path id="Fill-247" class="st7" d="M-211.3,126.9c-3.5,3.2-4.9,8.1-1.5,11.9c3.2,3.6,9.3,4.3,13.2,1.5
				c9.5-6.9-0.4-19.5-10.7-16.9c-1.9,0.5-1.4,3,0.5,3.1c3,0.2,6.2,0.3,8.6,2.2c2.6,2.1,2.6,5.7,0.5,8.1c-5.6,6.4-15.3-3-9.5-8.8
				C-209.4,127.3-210.6,126.2-211.3,126.9"/>
			<path id="Fill-249" class="st21" d="M-133.7,156.7c-1.1,6.3-2.1,12.6-3,18.9c-0.2,1.5,0.8,2.6,2.2,2.3c5.6-0.9,11.1-1.7,16.6-3
				c1.1-0.3,1.5-1.6,1-2.6c-3.1-5.9-7.1-14-12.9-17.2c-1.5-0.8-3.6,0.9-2.5,2.6c1.7,2.7,4.3,4.7,6.3,7.1c2.3,2.8,4.5,5.9,6.2,9.2
				c0.5-0.9,0.9-1.8,1.4-2.6c-5.7,0.6-11.4,1.7-17.1,2.8c0.7,0.6,1.5,1.2,2.2,1.8c0.7-6.4,1.3-12.7,1.7-19.1
				C-131.4,155.7-133.5,155.4-133.7,156.7"/>
			<path id="Fill-251" class="st22" d="M-161,145.2c1.6-6,2.9-12.4,3.2-18.5c0.1-1.9-3.7-2.4-4.1-0.5c-1.4,6-1.9,12.5-1.9,18.6
				C-163.8,146.1-161.4,146.5-161,145.2"/>
			<path id="Fill-253" class="st11" d="M-94,144.4c5.8,1.1,11.8,1.8,17.6,1.6c2.1-0.1,2.1-4.1,0-4.4c-5.7-0.8-11.7-0.6-17.3-0.1
				C-94.8,141.6-95.3,144.1-94,144.4"/>
			<path id="Fill-255" class="st21" d="M-143.2,68c5.2,2.7,10.8,5.2,16.4,6.9c1.8,0.5,3-2.1,1.3-2.9c-5.2-2.5-11.2-4.5-16.8-6
				C-143.6,65.7-144.4,67.4-143.2,68"/>
			<path id="Fill-257" class="st8" d="M-125.9,116.4c-0.1-0.1-0.2-0.2-0.3-0.3c-1.5-1.3-4-1.6-5.4,0c-1.5,1.6-1.4,3.8,0,5.4
				c0.1,0.1,0.2,0.2,0.3,0.3c1.3,1.5,4.1,1.5,5.5,0C-124.5,120.4-124.3,117.8-125.9,116.4"/>
			<path id="Fill-259" class="st23" d="M-261.2,5.6c-6.1,2.1-11.1,7.3-13.3,13.6c-2.2,6.3-1.6,13.7,1.7,19.5
				c6.2,11.2,22.1,14.8,32.1,7.3c10-7.5,12-24.5,3.9-34.4c-8.1-9.8-24.3-10.3-32.9-0.9"/>
		</g>
	</g>
</g>
<path class="st24" d="M282.9,273.8c-0.1,1.4-0.9,2.2-2.3,2.3c-0.6-1.3-1.4-1-2.3-0.4c-4.6,3-9.4,2.6-14.5,1.3
	c-39.3-10.5-78.6-20.9-117.9-31.4c-8.1-2.2-16.4-3.6-24.1-6.9c-6.3-2.7-6.3-3.8-1.1-7.9c1.1-0.9,2.3-1.5,3.5-2.3
	c2,0.6,3.9,1.3,6,1.8c43,11.5,86,22.9,129,34.3c10.3,2.7,18.8-3,20.5-13.4c0.4-2.2,0.7-4.4,1.1-6.6c1.9-11.4-4.1-20.9-15.2-23.9
	c-14.7-4-29.4-7.9-44.1-11.7c-14-3.7-28.1-7.3-42.1-10.9c4.3-8.6,3.4-17-1.1-25.2c1.2,0.2,2.5,0.4,3.7,0.7
	c20.9,5.6,41.8,11.1,62.7,16.7c4.5,1.2,9,1.8,13.6,0.4c-5.4,5.3-12,6.1-19,4.3c-6.9-1.7-13.7-3.7-20.6-5.4c-0.9-0.2-2.3-1.6-2.8,0.1
	c-0.5,1.6,1.3,1.4,2.3,1.7c6.2,1.7,12.4,3.2,18.5,5c11.1,3.3,20.3,0.9,27.3-8.7c6.2-3.2,8.4-9,9.5-15.4c1.9-11.3,3.5-22.6,5.5-33.9
	c1.8-10.7-1.5-19.5-9.7-26.5c-1.6-1.4-2.8-2.5-2.4-4.8c0.4-2.2-0.9-3.5-3-3.8c-3.8-0.5-7.4-3.6-11.5-1.5c-0.4,0.2-0.5,1-0.6,1.5
	c-0.4,1.4-1.5,0.9-2.4,0.8c-1.1-0.1-1.9-0.6-1.8-1.8c0.2-1.5,0.5-3,0.7-4.5c0.8-5.4-1.9-9.8-7.1-11.2c-14.7-3.9-29.4-7.8-44.1-11.6
	c-3.8-1-7.3-0.3-9.1,3.8c-4.7,0.2-7.6,2.7-8.9,7c-6.4-0.7-12.1,0.9-16.8,5.5c-2.4,1.2-5,2.1-6.8,4.1c-5.7,4.6-8.6,10.8-6.6,14.5
	c1.9-5.3,3.2-10.9,8.9-13.4c-1,2.6-1.9,5.2-2.4,8c-1.7,11-3.4,22-5.3,33c-1.3,7.1-0.6,13.8,2.9,20.2c-4,3-7.6,6.5-10.9,10.3
	c-4.5,5.3-9.8,9.5-15.7,13c-2,1.2-4,1.8-6.3,1.9c-2.5,0.2-3.3,0.1-2.8-2.9c2.8-16.8,5.3-33.6,8-50.4c3-18.9,6-37.7,9.1-56.5
	c7-0.6,13.9-1.6,20.2-4.7c7.7-3.9,9-9.9,3.7-16.7c-1.5-1.9-3.3-3.4-5.2-4.8c-4.1-3-8.7-4.9-13.4-6.6c3.3-8.3,10.1-11.9,18.7-9.7
	c9.2,2.4,18.3,4.9,27.5,7.3c37.1,9.9,74.1,19.7,111.2,29.6c11.4,3,17.2,11.7,15.5,22.7c-8.5,54.2-17,108.4-25.7,162.6
	c-1.1,6.9-0.6,14.3-5.4,20.4C280.9,273.7,282.3,273.5,282.9,273.8z"/>
<path class="st25" d="M132,73.6c-12.3,1.3-24.7,1-37.1,1.2c-18.3-0.7-36.5-2.2-54.5-5.9c-2.6-0.5-5.1-1.4-7.6-2.4
	c-2.9-1.1-6-2.5-6.5-5.9c-0.5-3.7,2.6-5.7,5.1-7.6c2.6-1.9,5.5-3.3,8.5-4.5c9.2-3.5,18.8-5.5,28.6-5.7c2.3-0.1,3.4-0.5,3.8-3.1
	c0.7-4.7,2.7-9.1,5.4-13c6.7-9.7,17.7-10.4,25.3-1.4c2,2.3,3.7,4.8,5.6,7.3c3.2-3,6.4-5.6,11.2-4.8c3.8,0.7,7.4,2.2,8.2,6.2
	c0.8,4.2,3.2,5.3,6.7,5.4c1,0,1.9,0.2,2.9,0.3c0.4,0.7,1.1,0.7,1.8,0.7c4.7,1.7,9.3,3.7,13.4,6.6c1.9,1.4,3.7,2.9,5.2,4.8
	c5.3,6.8,4.1,12.9-3.7,16.7c-6.3,3.2-13.3,4.1-20.2,4.7C133.5,73.1,132.6,73,132,73.6z M75.5,44.3c3-10.9,6.4-20.4,19.6-20.3
	C85.5,20.5,73.8,32.2,75.5,44.3z M122.3,35.2c-1.3-3.9-4.2-4.9-7.9-4.5C116.9,32.3,120.1,32.8,122.3,35.2z"/>
<path class="st26" d="M245.2-41c0.1-0.1,0.2-0.3,0.2-0.4C245.4-41.3,245.3-41.1,245.2-41C245.2-41,245.2-41,245.2-41z"/>
<path class="st0" d="M-12.8,137c-0.7-0.3-0.7-0.7,0-1c0,0,0,0,0,0C-12.8,136.3-12.8,136.7-12.8,137L-12.8,137z"/>
<polygon class="st26" points="326.5,106.6 326.7,106.2 326.8,106.4 "/>
<path class="st26" d="M325.6,102.4c0.6,0.3,0.6,0.6,0,0.8v0C325.6,102.9,325.6,102.7,325.6,102.4
	C325.6,102.4,325.6,102.4,325.6,102.4z"/>
<path class="st0" d="M-16.8,223c-0.1,0.1-0.2,0.3-0.2,0.4C-16.9,223.3-16.9,223.1-16.8,223C-16.8,223-16.8,223-16.8,223z"/>
<path class="st0" d="M-15.8,227c-0.1,0.1-0.2,0.3-0.2,0.4C-15.9,227.3-15.9,227.1-15.8,227C-15.8,227-15.8,227-15.8,227z"/>
<path class="st26" d="M322.3,92.3c0.1-0.1,0.1-0.2,0.2-0.4C322.4,92.1,322.4,92.2,322.3,92.3C322.3,92.3,322.3,92.3,322.3,92.3z"/>
<path class="st26" d="M321.4,89c0.6,0.3,0.6,0.6,0,0.8v0C321.5,89.5,321.5,89.2,321.4,89L321.4,89z"/>
<path class="st0" d="M99.1,301.3c-0.1,0.1-0.1,0.2-0.2,0.4C99,301.5,99,301.4,99.1,301.3C99.1,301.3,99.1,301.3,99.1,301.3z"/>
<path class="st0" d="M-13.8,233c-0.1,0.1-0.2,0.3-0.2,0.4C-13.9,233.3-13.9,233.1-13.8,233C-13.8,233-13.8,233-13.8,233z"/>
<path class="st0" d="M224.9,305.4c-0.3,0.6-0.6,0.6-0.8,0C224.4,305.5,224.7,305.5,224.9,305.4C225,305.5,224.9,305.4,224.9,305.4z"
	/>
<path class="st0" d="M115,306.3c-0.3,0.6-0.6,0.6-0.8,0c0,0,0,0,0,0C114.5,306.3,114.7,306.3,115,306.3L115,306.3z"/>
<path class="st0" d="M218.2,307.1c0.1,0.1,0.2,0.1,0.4,0.2C218.5,307.3,218.4,307.2,218.2,307.1
	C218.2,307.1,218.2,307.1,218.2,307.1z"/>
<path class="st0" d="M129.3,309.6c-0.1,0.1-0.1,0.2-0.2,0.4C129.2,309.9,129.2,309.8,129.3,309.6L129.3,309.6z"/>
<path class="st0" d="M101.6,302.1c-0.1,0.1-0.1,0.2-0.2,0.4C101.5,302.3,101.5,302.2,101.6,302.1
	C101.6,302.1,101.6,302.1,101.6,302.1z"/>
<path class="st25" d="M124.1,228.4c6.2-6.6,13.6-11.8,20.2-17.9c2-1.8,4.8-0.7,7.3-1c10.3-1.3,20.1-3.7,27.6-11.6
	c14,3.6,28.1,7.3,42.1,10.9c14.7,3.9,29.4,7.8,44.1,11.7c11.2,3,17.1,12.5,15.2,23.9c-0.4,2.2-0.7,4.4-1.1,6.6
	c-1.7,10.5-10.2,16.2-20.5,13.4c-43-11.4-86-22.9-129-34.3C128,229.7,126.1,229,124.1,228.4z M235.6,231.3c-2.7-0.1-4.2,0.9-4.5,3
	c-0.4,2.6,0.8,4.4,3.3,5.1c6.2,1.7,12.4,3.3,18.6,5c2.1,0.6,4,0.2,4.8-2.1c0.7-2.2,0.1-4.5-2.2-5.3
	C248.8,234.8,241.9,233,235.6,231.3z"/>
<path class="st27" d="M110.8,189.1c0.8,1.1,1.7,0.6,2.6,0.3c12.3-4.7,23.2-11.3,31.7-21.6c7.9-9.6,19.1-14.1,30.2-18.5
	c5-2,10.3-3.4,15.6-4.5c2.9-0.6,6-1.4,8.9,0.5c0.5,3.4-1.8,5.4-4.1,7.3c-5.9,5-12.2,9.4-19.1,12.8c-3.5,1.7-4.4,2.8-1.9,6.4
	c3.7,5.3,6.3,11.3,5,18.1c-1.4,6.8-5.6,11.4-12.1,13.9c-6.6,2.6-13.4,3.8-20.5,4.1c-2.3,0.1-3.9,0.8-5.6,2.3
	c-9.5,8.3-18.7,16.8-28.8,24.3c-4.5-14.1-11.9-26.5-22.1-37.2c5.9-2.5,11.7-5,17.6-7.5C109.1,189.5,110,189.3,110.8,189.1z"/>
<path class="st28" d="M114.2,184.6c-0.1,2.6-1.2,3.6-3.8,2.7C111.4,185.9,112.7,185.1,114.2,184.6z"/>
<path class="st28" d="M110.8,189.1c-0.8,0.2-1.7,0.4-2.5,0.6c0.4-0.9,0.9-1.6,1.8-2C110.4,188.1,110.6,188.6,110.8,189.1z"/>
<path class="st29" d="M-12.8,137c0-0.3,0-0.7,0-1C-12.1,136.3-12.1,136.7-12.8,137z"/>
<path class="st29" d="M-16.8,149c0.1,0.1,0.3,0.1,0.4,0.2C-16.5,149.1-16.6,149.1-16.8,149C-16.8,149-16.8,149-16.8,149z"/>
<path class="st29" d="M-12.8,237c0.1-0.1,0.2-0.3,0.2-0.4C-12.6,236.7-12.7,236.9-12.8,237C-12.8,237-12.8,237-12.8,237z"/>
<path class="st29" d="M224.2-47c-0.4,0.2-0.7,0.5-1.1,0.7c-0.1-0.1-0.2-0.3-0.2-0.4C223.4-46.8,223.8-46.9,224.2-47
	C224.2-47,224.2-47,224.2-47z"/>
<path class="st29" d="M325.6,102.4c0,0.3,0,0.6,0,0.8C325.1,102.9,325.1,102.7,325.6,102.4z"/>
<path class="st29" d="M315.6,211.5c-0.1-0.1-0.2-0.1-0.4-0.2C315.3,211.3,315.5,211.4,315.6,211.5L315.6,211.5z"/>
<path class="st29" d="M324.8,99c-0.1,0.1-0.1,0.2-0.2,0.4C324.7,99.3,324.7,99.1,324.8,99C324.8,99,324.8,99,324.8,99z"/>
<path class="st29" d="M321.5,89c0,0.3,0,0.6,0,0.8C320.9,89.5,320.9,89.2,321.5,89z"/>
<path class="st29" d="M225,305.5c-0.3,0-0.6,0-0.8,0C224.4,304.9,224.7,304.9,225,305.5z"/>
<path class="st29" d="M115,306.3c-0.3,0-0.6,0-0.8,0C114.5,305.7,114.7,305.7,115,306.3z"/>
<path class="st26" d="M75.5,44.3C73.8,32.2,85.5,20.5,95.1,24C81.9,23.9,78.6,33.5,75.5,44.3z"/>
<path class="st26" d="M122.3,35.2c-2.2-2.4-5.4-2.9-7.9-4.5C118,30.3,121,31.3,122.3,35.2z"/>
<path class="st30" d="M201.3,145.2c-1.6-4.1-5.3-2.7-8.3-3.2c-1.1-4.9-0.9-9.7,1-14.4c4.1-10.1,15.7-14.8,26.1-10.7
	c11.5,4.6,18.3,17.6,15.3,29.4c-2.9,11.6-15.4,18.1-26.7,13.8c-4.1-1.6-7.6-4.1-10.4-7.5C199.9,150.3,202.4,148.4,201.3,145.2z
	 M210,143.4c-0.5,2.9,0.2,5,2.8,5.6c3,0.7,3.9-1.5,4.1-4c0.3-2.5,1.9-1.8,3.3-1.5c2.3,0.6,4,0,4.6-2.4c0.5-2.2-0.7-4-2.8-4.5
	c-3-0.6-3.7-2-3-4.9c0.5-2.2-0.9-3.9-3.1-4.3c-2.4-0.5-3.6,1.1-3.9,3.3c-0.2,2-0.8,3.1-3.1,2.2c-2.2-0.8-4.1-0.4-4.7,1.9
	c-0.7,2.6,0.6,4.4,3.1,5C209.3,140.7,210.8,141.3,210,143.4z"/>
<g>
	<path class="st31" d="M178.1,172.8c-3-4.5-3-4.6,1.6-7.1c6.7-3.7,12.7-8.3,18.7-13.1c2.8,3.4,6.3,5.9,10.4,7.5
		c11.3,4.3,23.7-2.1,26.7-13.8c3-11.8-3.8-24.8-15.3-29.4c-10.4-4.1-22.1,0.6-26.1,10.7c-1.9,4.7-2.1,9.5-1,14.4
		c-14.3,3-27.7,8.2-40.2,15.7c-3.5-6.4-4.2-13.1-2.9-20.2c2-11,3.6-22,5.3-33c0.4-2.8,1.3-5.4,2.4-8c0-0.3,0.1-0.6,0.1-0.9
		c4.3-2.9,9.2-3.9,14.3-3.3c2.5,0.3,5.4,2,7.2,1.2c2.3-1.1,0.8-4.9,2.1-7.3c3.7,1.7,5.6,0.6,5.7-3.5c0-0.6,0.1-1.1,0.2-1.7
		c16,3.3,31.7,7.9,47.4,12.2c3.7,1,5.6,4.8,5.1,8.6c-0.2,1.9-0.5,3.9-1,5.8c-0.6,2.1,0.9,2.4,2.2,2.6c1.3,0.2,3.5,1.8,3.9-0.1
		c0.8-4.1,3-2.6,5.2-2.1c2.6,0.7,5.1,1.4,7.6,2.1c0,1.4-0.6,2.8,0.8,3.9c-0.5,1.5,0.5,2.2,1.5,3c8.5,6.7,11.9,15.5,10.4,26.1
		c-2,11.9-4,23.8-6,35.7c-0.8,4.6-2.7,8.7-6.4,11.7c-4.6,1.3-9.1,0.8-13.6-0.4c-20.9-5.6-41.8-11.2-62.7-16.7
		C180.6,173.2,179.4,173,178.1,172.8z"/>
	<path class="st31" d="M258.7,114.2c-1.4-1.1-0.9-2.5-0.8-3.9c0.6-0.1,0.9,2.1,1.5,0.3c0.6-1.8-1-2.5-2.3-2.9
		c-2.9-0.9-5.9-1.5-8.9-2.4c-2.2-0.6-3.9-0.4-4.8,1.8c-0.4,0.9-0.9,1.4-1.8,1c-1.1-0.4-0.8-1.3-0.7-2.1c0.1-0.7,0.1-1.4,0.2-2.1
		c1.1-8.1-1.3-11.7-9.1-13.7c-14.7-3.9-29.4-7.7-44-11.6c1.8-4.1,5.3-4.8,9.1-3.8c14.7,3.8,29.4,7.7,44.1,11.6
		c5.3,1.4,7.9,5.7,7.1,11.2c-0.2,1.5-0.5,3-0.7,4.5c-0.1,1.2,0.7,1.7,1.8,1.8c0.9,0.1,2,0.6,2.4-0.8c0.2-0.5,0.2-1.3,0.6-1.5
		c4.1-2.1,7.7,1,11.5,1.5c2.1,0.3,3.3,1.7,3,3.8c-0.4,2.3,0.8,3.5,2.4,4.8c8.2,7,11.5,15.8,9.7,26.5c-1.9,11.3-3.5,22.6-5.5,33.9
		c-1.1,6.3-3.3,12.1-9.5,15.4c1.2-2.8,2.5-5.6,2.9-8.7c1.7-11.8,3.3-23.6,5-35.5C273.5,130.5,269,120.3,258.7,114.2z"/>
	<path class="st31" d="M179,85.7c-0.1,1.1-0.2,2.2-0.3,3.3c0,2.2-1,2.9-3.1,2.2c-4.5-1.4-8.9-1-13.4,0.1
		C166.9,86.6,172.5,85.1,179,85.7z"/>
	<path class="st31" d="M90.7,197.1c10.3,10.7,17.6,23.1,22.1,37.2c0,0,0,0.2,0,0.2c-1.4-0.4-2.4-1.4-3.5-2.2
		c-4.5-3.7-9.3-7-15.1-8.6c-9.2-2.5-15.6,1.2-18,10.4c-0.5,1.9-0.8,3.8-0.6,5.8c0.2,2.9-1,5.1-3.1,7c-4.1,3.6-8.9,4.2-14,3.6
		c-8.4-1-16.2-0.5-21.6,7.3c-9.4-7.6-10.5-19.2-2.5-28.2c9.1-10.2,21.3-15.5,33.2-21.3c1.2-0.6,3.2-0.5,3.2-2.7
		C77.2,202,84,199.7,90.7,197.1z"/>
</g>
<path class="st32" d="M36.9,257.7c5.4-7.8,13.2-8.4,21.6-7.3c5.1,0.6,9.9,0,14-3.6c2.1-1.9,3.3-4.1,3.1-7c-0.1-1.9,0.1-3.8,0.6-5.8
	c2.4-9.2,8.8-12.9,18-10.4c5.8,1.6,10.6,4.9,15.1,8.6c1.1,0.9,2.1,1.8,3.5,2.2c0,0.4,0,0.7,0,1.1c-12.6,10.3-25.7,19.9-41,26
	c-3.9,1.5-7.8,2.8-12.1,2.9c-5.5-0.5-11.2,0.1-16.4-2.5C41.1,260.9,38.7,259.9,36.9,257.7z"/>
<g>
	<path class="st33" d="M59.8,264.6c0,1.6-1.1,1.6-2.3,1.6c-3.5,0-6.9,0-10.3-0.7c-5.7-1.7-10.6-4.6-14.6-9.1
		c-4.3-4.7-5.7-10.3-5.4-16.5c1.3-7.1,5.5-12.4,10.8-16.8c9.3-7.7,20.2-12.7,31.1-17.6c0.4-0.2,1.1,0,1.6,0c0,2.2-2,2.1-3.2,2.7
		c-11.9,5.8-24.1,11.1-33.2,21.3c-8,9-6.9,20.6,2.5,28.2c1.7,2.1,4.2,3.1,6.5,4.3C48.6,264.7,54.3,264.1,59.8,264.6z"/>
	<path class="st34" d="M139.6,40.2c-0.7,0.1-1.4,0.1-1.8-0.7c2.2-6.5,7-10,13.4-11.8c3.2-0.1,6.4,0.5,9.5,1.3
		c45.5,12.1,91,24.2,136.5,36.3c13.7,3.6,19.5,13,17.3,27.1c-8.8,54.8-17.5,109.6-26.3,164.3c-0.1,0.5,0,1.1,0,1.7
		c-1.5,5.2-0.8,11.1-5.2,15.3c-0.5-0.3-2-0.1-1.5-0.7c4.8-6,4.3-13.5,5.4-20.4c8.7-54.2,17.1-108.4,25.7-162.6
		c1.7-11.1-4.1-19.7-15.5-22.7c-37.1-9.9-74.1-19.7-111.2-29.6c-9.2-2.4-18.3-5-27.5-7.3C149.6,28.3,142.8,31.9,139.6,40.2z"/>
	<path class="st35" d="M267,279.8c-46.4-12.4-92.9-24.8-139.4-37.1c-4.4-1.2-8.6-2.6-11.8-5.8c-0.9-0.9-2-0.8-3-1.2
		c0-0.4,0-0.7,0-1.1c0,0,0-0.2,0-0.2c10.1-7.5,19.4-16,28.8-24.3c1.7-1.5,3.3-2.2,5.6-2.3c7-0.2,13.9-1.5,20.5-4.1
		c6.4-2.5,10.7-7.2,12.1-13.9c1.4-6.7-1.3-12.8-5-18.1c-2.5-3.6-1.6-4.8,1.9-6.4c6.9-3.3,13.2-7.8,19.1-12.8
		c2.2-1.9,4.5-3.9,4.1-7.3c0.5,0,1,0,1.5,0c1.1,3.3-1.4,5.1-2.9,7.4c-5.9,4.8-12,9.4-18.7,13.1c-4.7,2.6-4.6,2.6-1.6,7.1
		c4.5,8.2,5.4,16.6,1.1,25.2c-7.5,8-17.3,10.3-27.6,11.6c-2.4,0.3-5.3-0.8-7.3,1c-6.6,6.1-14,11.3-20.2,17.9
		c-1.2,0.8-2.4,1.4-3.5,2.3c-5.2,4.2-5.2,5.2,1.1,7.9c7.7,3.3,16,4.7,24.1,6.9c39.3,10.5,78.6,20.9,117.9,31.4
		c5.1,1.4,9.9,1.7,14.5-1.3c0.9-0.6,1.8-0.9,2.3,0.4C276.7,279.8,272,280.2,267,279.8z"/>
	<path class="st34" d="M152.9,157.7c12.5-7.5,25.9-12.8,40.2-15.7c3,0.5,6.7-0.9,8.3,3.2c-0.5,0-1,0-1.5,0c-2.9-1.9-6-1.1-8.9-0.5
		c-5.3,1.1-10.6,2.5-15.6,4.5c-11.1,4.4-22.4,8.9-30.2,18.5c-8.5,10.3-19.4,16.9-31.7,21.6c-0.9,0.4-1.8,0.8-2.6-0.3
		c-0.2-0.5-0.5-0.9-0.7-1.4c0-0.2,0.2-0.3,0.3-0.4c2.5,0.9,3.7-0.2,3.8-2.7c2.3-8.5,3.1-17.2,4.5-25.9c4.4-27.2,8.7-54.5,13-81.7
		c0.2-1.1,0.2-2.2,0.3-3.3c0.7-0.7,1.5-0.5,2.3-0.5c-3,18.8-6.1,37.7-9.1,56.5c-2.7,16.8-5.2,33.6-8,50.4c-0.5,3.1,0.4,3.1,2.8,2.9
		c2.3-0.1,4.3-0.8,6.3-1.9c5.9-3.5,11.2-7.8,15.7-13C145.3,164.2,148.9,160.7,152.9,157.7z"/>
	<path class="st33" d="M187.9,78.7c14.7,3.9,29.4,7.7,44,11.6c7.8,2.1,10.2,5.7,9.1,13.7c-0.1,0.7-0.2,1.4-0.2,2.1
		c-0.1,0.8-0.4,1.7,0.7,2.1c1,0.4,1.5-0.1,1.8-1c0.9-2.3,2.7-2.5,4.8-1.8c2.9,0.9,5.9,1.5,8.9,2.4c1.3,0.4,2.9,1.1,2.3,2.9
		c-0.6,1.8-1-0.4-1.5-0.3c-2.5-0.7-5.1-1.4-7.6-2.1c-2.2-0.6-4.4-2-5.2,2.1c-0.4,1.9-2.6,0.3-3.9,0.1c-1.4-0.2-2.8-0.5-2.2-2.6
		c0.5-1.9,0.7-3.8,1-5.8c0.5-3.8-1.4-7.6-5.1-8.6c-15.8-4.2-31.4-8.9-47.4-12.2c-3.6-0.1-5.5,1.6-5.9,5.2c-1.3,2.4,0.2,6.2-2.1,7.3
		c-1.8,0.9-4.7-0.9-7.2-1.2c-5.1-0.7-9.9,0.4-14.3,3.3c-0.8-0.1-1.6-0.2-2.4-0.3c1.8-2.1,4.5-2.9,6.8-4.1c4.5-1.1,9-1.5,13.4-0.1
		c2.2,0.7,3.1,0,3.1-2.2c0-1.1,0.2-2.2,0.3-3.3C180.4,81.4,183.2,78.9,187.9,78.7z"/>
	<path class="st34" d="M271.7,143.5c-1.7,11.8-3.3,23.7-5,35.5c-0.4,3.1-1.7,5.9-2.9,8.7c-7,9.6-16.2,12-27.3,8.7
		c-6.1-1.8-12.4-3.3-18.5-5c-0.9-0.3-2.7-0.1-2.3-1.7c0.5-1.7,1.9-0.3,2.8-0.1c6.9,1.7,13.7,3.7,20.6,5.4c7,1.7,13.5,1,19-4.3
		c3.8-3,5.6-7.1,6.4-11.7c2-11.9,4-23.8,6-35.7C271,143.4,271.4,143.5,271.7,143.5z"/>
	<path class="st34" d="M155.4,95.4c0.8,0.1,1.6,0.2,2.4,0.3c0,0.3-0.1,0.6-0.1,0.9c-5.7,2.5-7,8.1-8.9,13.4
		C146.7,106.2,149.6,100.1,155.4,95.4z"/>
	<path class="st33" d="M271.7,143.5c-0.4-0.1-0.8-0.1-1.2-0.2c1.5-10.7-1.9-19.4-10.4-26.1c-1-0.8-2.1-1.5-1.5-3
		C269,120.3,273.5,130.5,271.7,143.5z"/>
</g>
<path class="st0" d="M181.3,86.3c0.4-3.5,2.3-5.3,5.9-5.2c-0.1,0.5-0.2,1.1-0.2,1.6C186.9,86.9,184.9,88,181.3,86.3z"/>
<path class="st30" d="M235.6,231.3c6.3,1.8,13.2,3.5,19.9,5.6c2.2,0.7,2.9,3,2.2,5.3c-0.7,2.3-2.6,2.7-4.8,2.1
	c-6.2-1.6-12.4-3.2-18.6-5c-2.5-0.7-3.7-2.5-3.3-5.1C231.4,232.2,232.9,231.2,235.6,231.3z"/>
<path class="st25" d="M210,143.4c0.8-2.1-0.7-2.8-2.7-3.3c-2.5-0.6-3.9-2.4-3.1-5c0.7-2.3,2.6-2.8,4.7-1.9c2.3,0.9,2.9-0.2,3.1-2.2
	c0.2-2.2,1.4-3.8,3.9-3.3c2.2,0.4,3.6,2.1,3.1,4.3c-0.7,2.9,0,4.3,3,4.9c2.1,0.4,3.3,2.3,2.8,4.5c-0.5,2.3-2.3,2.9-4.6,2.4
	c-1.4-0.4-3.1-1.1-3.3,1.5c-0.2,2.4-1.1,4.7-4.1,4C210.2,148.5,209.5,146.3,210,143.4z"/>
<rect x="413.2" y="144" class="st31" width="24" height="28"/>
</svg>
